<svg class="svg-icon" style="width: 1em; height: 1em;vertical-align: middle;fill: currentColor;overflow: hidden;" viewBox="0 0 1024 1024" version="1.1" xmlns="http://www.w3.org/2000/svg"><path d="M571 512.9L916.9 167c15.9-15.9 15.9-41.7 0-57.6-15.9-15.9-41.7-15.9-57.6 0L513.4 455.3 167.5 109.4c-15.9-15.9-41.7-15.9-57.6 0-15.9 15.9-15.9 41.7 0 57.6l345.9 345.8L110 858.7c-15.9 15.9-15.9 41.7 0 57.6 8 8 18.4 11.9 28.8 11.9 10.4 0 20.8-4 28.8-11.9l345.9-345.8 345.9 345.8c8 8 18.4 11.9 28.8 11.9 10.4 0 20.8-4 28.8-11.9 15.9-15.9 15.9-41.7 0-57.6L571 512.9z"  /></svg>