<?xml version="1.0" encoding="UTF-8"?>
<svg viewBox="0 0 640 480" xmlns="http://www.w3.org/2000/svg">
 <defs>
  <linearGradient id="c" x1="-.33226" x2="-1.236" y1="3.8851" y2="3.8851" gradientTransform="matrix(.9748 0 0 .9748 173.34 -492.31)">
   <stop offset="0"/>
   <stop stop-opacity="0" offset="1"/>
  </linearGradient>
  <radialGradient id="d" cx="311.43" cy="1062.9" r="225.06" gradientTransform="matrix(1 0 0 1.0001 39.209 -888.18)" gradientUnits="userSpaceOnUse">
   <stop stop-color="#fff" offset="0"/>
   <stop stop-color="#fff" offset=".4702"/>
   <stop stop-color="#d6d6d6" offset="1"/>
  </radialGradient>
 </defs>
 <g fill-rule="evenodd">
  <path d="m450.17 225.08c0 124.25-100.61 225.08-224.58 225.08s-224.58-100.84-224.58-225.08c0-124.25 100.61-225.08 224.58-225.08s224.58 100.84 224.58 225.08z" fill="#214975" stroke-width="5.573"/>
  <path d="m225.08 0.0036c-49.128 0-94.576 15.785-131.59 42.531-16.116 19.49-27.406 39-27.406 39l-20.562 7.875c-28.559 37.736-45.5 84.748-45.5 135.69 0 4.758 0.14613 9.472 0.4375 14.157 5.1158 9.139 8.9375 14.968 8.9375 14.968l-2.625 25.688c14.702 58.679 52.455 108.24 103.06 138.5 3.616 2.338 6.637 3.754 9.955 5.631-1.761-1.663-2.303-2.108-3.455-3.162-13.247-13.702-24.406-29.719-24.406-29.719l32.031-29.469s20.595 15.565 43.719 23.625c23.125 8.06 48.781 8.625 48.781 8.625l15.875 40.75s-14.027 7.195-33.937 10.719c-3.565 0.63098-7.333 1.144-11.094 1.562 12.288 2.082 24.903 3.188 37.781 3.188 52.043 0 99.99-17.684 138.12-47.375 11.93-15.985 19.75-29.719 19.75-29.719l17.375-6.812c30.833-38.223 49.436-86.72 49.813-139.53-6.124-18.158-12.813-28.812-12.813-28.812s1.708-16.583-0.69-34.848c-0.37601-2.866 1.549-1.846 3.867-3.402-0.68701-2.595-3.185-10.306-4.445-13.988-4.96-14.496-9.839-21.412-13.044-27.825 6.243 3.488-0.024994-0.018997-0.031006-0.030998-38.131-70.163-112.49-117.81-197.91-117.81zm27.219 8.5625c18.704 0.25577 38.219 6.3125 38.219 6.3125s22.173 8.5206 38 20.562c15.827 12.042 25.312 27.594 25.312 27.594l-40.25 27.812s-21.666-14.842-44.312-22.844c-22.646-8.0012-46.281-9.1562-46.281-9.1562l-11.407-41.531s17.264-8.1102 37-8.7187c1.234-0.03802 2.472-0.048309 3.719-0.03125zm-131.53 111.19c13.82 0.063004 25.312 1.718 25.312 1.718l20.813 88.438-66.813 63.625s-20.863-13.237-35.906-26.188c-15.043-12.95-24.281-25.625-24.281-25.625s2.7158-25.653 8.8437-47.718 15.688-40.532 15.688-40.532 16.519-9.506 36.938-12.5c6.381-0.935 13.124-1.247 19.406-1.218zm216.53 63.156s18.838 8.253 34.031 20.406c15.194 12.153 26.75 28.219 26.75 28.219s-1.077 22-8.343 44.875c-7.266 22.874-20.719 46.625-20.719 46.625s-18.778 6.891-38.594 8.75-40.687-1.313-40.687-1.313l-10.344-43.281-10.656-44.5s14.141-17.052 31.281-32 37.281-27.781 37.281-27.781z" fill="url(#d)" stroke-width="5.103"/>
  <path d="m100.16 271.58s-20.337-12.906-35.001-25.53c-14.664-12.625-23.655-24.968-23.655-24.968s2.6368-24.997 8.6103-46.506 15.284-39.53 15.284-39.53 16.098-9.255 36.003-12.173c19.904-2.918 43.615 0.501 43.615 0.501l20.279 86.211-65.135 61.995z" fill="#003f7f" stroke="url(#c)" stroke-linejoin="round" stroke-width="4.874"/>
  <g fill="none">
   <path d="m145.03 122.68s36.186-48.081 78.436-64.331" stroke="#666"/>
   <path d="m315.8 89.621s26.985 42.926 23.485 91.927" stroke="#ececec" stroke-width="3"/>
   <g stroke="#666">
    <path d="m313.4 90.136s27.576 44.376 24.076 93.376"/>
    <path d="m350.82 62.772s59.784 23.6 86.034 98.35"/>
    <path d="m398.44 231.41s21.044-1.635 39.429-32.748"/>
    <path d="m383.42 372.84s2.92-18.129-14.522-50.953"/>
    <path d="m216.7 394.46s32.35-8.573 73.362-65.142"/>
    <path d="m99.845 272.74s-1.9445 50.382 23.158 89.98"/>
    <path d="m91.903 391.43s-7.4296 0.09201-35.545-16.858"/>
    <path d="m40.36 221.66s-20.149 8.463-31.002 31.911"/>
    <path d="m65.725 81.77s-7.2315 27.912-0.9479 51.363"/>
    <path d="m89.946 46.118s60.054-50.895 121.22-28.268"/>
    <path d="m232.18 434.74s52.386 13.452 133.19-34.233"/>
   </g>
   <g stroke-width="3">
    <path d="m145.23 119.07s30.091-41.441 74.341-61.316" stroke="#f2f2f2" stroke-linecap="square"/>
    <g stroke="#fff">
     <path d="m217.52 396.19s30.823-5.946 71.835-62.514"/>
     <path d="m97.819 273.86s-1.9445 50.396 23.158 89.994"/>
    </g>
   </g>
   <path d="m167.37 210.08s26.34 6.187 101.29 32.704" stroke="#999"/>
   <path d="m167.37 208.8s26.34 6.187 101.29 32.704" stroke="#ececec"/>
  </g>
 </g>
</svg>
