<?xml version="1.0" encoding="UTF-8"?>
<svg viewBox="0 0 864 744" xmlns="http://www.w3.org/2000/svg">
 <g fill-rule="evenodd">
  <path d="m34 184l-1-5h1q1 1 2 1h2v6q0 5-2 7t-2 2v1h-2l1 1 1 1 11 3q11 3 12 4l1 1h2v1l1 1 1 1v1l-1 1-1 1v2h-2l-6 4q-6 4-7 4h-1l-1 1-1 1h-3l-1 1-1 1h4l17-2q18 0 22 1 4 2 5 3 1 0 1 2v3t-1 0q0 1-1 0l-1-1h-1t-10-1-40 3l-29 4h-3v-2h3l1-1 1-1h1q2 0 23-9l21-9h1l1-1 1-1h2v-1h1v-1h1l-1-1-1-1h-2l-1-1-2-1h-2q-1 0-11-3l-10-3h-4l-1-1h-2v-2h1l1-1h2l1-1q1-1 3-1 1-2 4-4 4-3 2-8z" fill="#054b83" stroke="#054b83"/>
  <path d="m244 169l6 1h-1t-2 2l-2 2h-1v1h-1v1h-1v6l3 4q3 4 3 5v1q-1 0 0 2 0 1-2 1-2-1-2 1t1 2 1 2q1 1 2 1 2 1 2 3 1 2-4 0-4-2-14-2-9 0-9 1 1 1-2 0l-2-1h-1v-1l-1-1-1-1v-5h-2l1-1h1v-2h2l1 1h4q4 2 6 2h2l1 1 2 1h3v-1h-1v-1h-1v-1h-1v-1h-1v-1h-1v-1h-1v-1q-1 0-4-5l-3-4 2-4q0-4 2-6t6-2q5 0 10 1z" fill="#5ca6d7" stroke="#5ca6d7"/>
  <path d="m142 29h2l1 1q1 0 3 1l1 1 11 5q10 5 10 6h1l3 2q2 1 2 2h1v1l9 8q8 8 8 9h1v1h1v1h1v1h1v2h1v1h1v1l1 1v1h-2v-1h-1v-1l-1-1-1-1v-1h-1v-1h-2q-1-1-1-1v-1t-1 0q-1-1-5-4l-5-4h-1t-7-4-23-10q-17-4-31-4t-23 2q-10 4-18 9-9 5-15 13-7 8-11 18-4 11-4 24 0 12 2 20 2 9 8 22l7 14 1 1q0 1 0 2h1q0 1 1 1 0 0 0 1h1q0 1 1 1 0 0 0 1h1l1 2q1 1 2 2h1q0 1 1 1 0 0 0 1h1q0 1 1 1 0 0 0 1h1q0 1 1 1 0 0 0 1h1q0 1 1 1 0 0 0 1h1q0 1 1 1 0 0 0 1h1q0 1 1 1l2 3q2 3 2 3h1l1 1h1v1l1 1v1h2v1h1v1h-4v-1h-1v-1h-2l-1-1q-1-1-11-7l-9-6q-1-1-1-1v-1t-1 0q-1-1-1-1v-1t-1 0q-1-1-1-1v-1t-1 0q-1-1-1-1v-1t-1 0q-1-1-1-1v-1t-4-4l-4-5v-1t-1 0q-1-1-1-2v-1h-1v-1h-1v-1q0-1-3-5-3-5-7-18-4-14-5-28v-15l1-2 3-11q4-10 11-20t16-16q10-6 20-10 11-4 29-4t23 2q4 0 6 1z" fill="#74c3e8" stroke="#74c3e8"/>
  <path d="m301 116v-2l65 31q64 31 65 31h1l1 1 1 1h2l1 1h1v2h-1l-1-1h-4q-5 0-42-5l-36-5h-3l1 1 1 1h2l1 1 1 1h2l79 40q78 38 79 39l1 1h2l1 1 1 1h2v1h1v1h-4l-3-1q-3-1-52-8l-49-7-2-1h-3q-1-1-6-3l-4-2-1-1-1-1h-1l-1-1h-2v-2h1l1 1h6l6 2q7 0 10 1h4l26 4q25 5 28 5h4l3 1 3 1h3v-1h-1v-1h-2l-1-1-1-1h-2l-1-1q-1-1-49-24l-49-24q0-1-29-15l-30-14-1-1-1-1h-2l-1-1-1-1h-1 3l33 4q33 4 37 4h12-2l-1-1-1-1h-2l-1-1-1-1h-1q-1 0-45-22l-44-20v-1h-2q0-1-2-1l-1-1v-1q1-1 0-2z" fill="#054b83" stroke="#054b83"/>
  <path d="m89 5h1v3t-4 2-15 8-23 17q-11 11-17 23l-7 11v2l-1 1-1 2h-2v-1h-1v-1h1v-2l1-2 1-1 6-12q7-11 18-23 11-10 24-18 12-6 15-8 3 0 4-1z" fill="#0a5088" stroke="#0a5088"/>
  <path d="m144 27v-1l9 4q9 3 13 6 6 4 6 4v2t-1 0v1h-1q0-1-10-6l-11-5-1-1q-2-1-3-1l-1-1q0-1 0-2z" fill="#c8e9f9" stroke="#c8e9f9"/>
  <path d="m212 238v1q0 1 0 1h1t1 1v1t1 1l1 1v1l19 27q19 26 19 27h1l1 2q2 2 2 3v1h1v1h1v2h1v1h1v2h-2v-2h-1v-1h-1v-1h-1v-1h-1v-1h-1v-1q-1 0-1 0 0-1-1-1v-1q-1 0-1 0 0-1-14-15l-13-14v-1q-1 0-15-16-15-16-16-16h-1l-1-2q-2-2-1-4 0-2 6-2t10 3q5 3 5 3z" fill="#f3f7fb" stroke="#f3f7fb"/>
  <path d="m172 42v-1l7 5q7 4 17 15t12 17q4 5 4 6v1l1 1 1 2v2l1 1 1 1v3h-1v-1h-1v-2l-1-1-1-1v-1h-1v-1h-1v-1h-1v-1h-1t-7-8l-7-8v-1h-2v-1h-1v-2h2v1h1v1t1 0v1h1v1h2v-2h-1v-1h-1v-1h-1v-1h-1q0-1-8-9l-9-8v-1h-1q0-1-2-2l-3-2v-1q1 0 1 0zm27 31q0-1 1-1t1 1v1h-1q-1 0-1-1z" fill="#c1e6f8" stroke="#c1e6f8"/>
  <path d="m287 171v-1h2v1h1v1h2l1 1 1 1h1l7 4q6 4 6 5h1v1h2v1h1v1h2v1h1l1 1q1 0 2 1l1 1h1l21 14q22 14 23 15l1 1h1l1 1 1 1h2v1h1v1h1-4l-2-1-1-1h-2l-1-1q-1-1-34-15l-33-14-1-1-1-1h-3l-1-1-1-1h-2v1h1v1h1l1 1 1 1h1v1h1v1h1l15 12q14 10 15 11l1 1h1v1h1v1h1l1 1 1 1h2v2h-2l-1-1-1-1h-2l-1-1-1-1h-2l-1-1q-1-1-14-7l-13-6-1-1-1-1h-2l-1-1-1-1h-3v1h1v1h2v1h1v1h1l1 1 1 1h1l27 20q27 20 28 21l1 1h1v1h1v1h2v1h1v1h1l1 1h1v2h-1l-1-1h-1l-1-1-1-1h-2l-1-1-1-1h-1q-1 0-13-7l-12-7h-2v-1h-1v-1h-2t-29-16l-29-16q0-1-1-1v-1q-1-1-5-6l-4-4q0-1-1-1v-1q-1-1-3-4l-2-4v-6h1v-1h1v-1h1l8 1q8 1 9 1h4l11 4q11 4 13 4h1l1 1 1 1h2l1 1 1 1h2v-1l-1-1v-1h-1v-1h-1v-2h-1v-1q-1 0-2-2l-2-3h-1v-1l-1-1-1-1v-1l-1-1z" fill="#f4f8fc" stroke="#f4f8fc"/>
  <path d="m128 18h3l7 1q7 1 9 1h2l1 1q2 1 4 1h1t2 1l2 1h2l7 2q6 2 13 4 7 1 13 8 5 8 11 11t11 4 6 0h1v6q1 6 1 9v4h1v2q1 1 1 2v2l4 6q4 6 10 10 7 4 8 4h2v3h-1v1l-5 6q-6 7-7 11t-1 12 5 14q4 5 5 7 2 2 2 3h1v1h1v1h1v1h1v1h1v1h-7l-7 1q-7 1-12 2l-5 1v1h-1v1h-1v1h-1v1h-1v3l1 1 1 2v2l1 1 1 1v1h1v1h1l3 4q3 5 4 5v1h1v1h1v1h1v1h1v1h1v1h1v1h-3l-2-1-1-1h-2q-2 0-6-2h-4l-1-1h-4l-3 1h-1v2h-1v1h1l1 3q1 3 2 3v1h1v2h-10q-7 0-8 0-2 0-3 2t-7 2q-6 2-9 3t-5 5q-3 4-8 4t-9 2-9 6q-4 4-6 4t-9-4-20-4h-13v-2l-1-2-1-1v-2h-1v-1h-1t-2-2q-3-2-10-5t-8-6q-2-3-5-7t-9-6q-7-3-8-8 0-5-4-13l-4-8v-2h-1v-1l-1-1v-3h1v1h1v1h2v1h1v1h2v1q0 1 1 1h1t1 1l4 5q4 4 4 4v1q0 1 0 1h1t1 1q0 1 0 1h1t1 1q0 1 0 1h1t1 1q0 1 0 1h1t1 1q0 1 0 1h1l5 5q4 5 10 9t7 4h1l1 1 1 1h2l2 1h1q0 1 1 1l10 3q9 3 12 4t12 1h10l2-1 1-1h-2l-4-1q-4-1-15-4-12-3-26-11l-14-8q0-1-1-1v-1q-1 0-1 0 0-1-1-1v-1q-1 0-1 0 0-1-1-1v-1q-1 0-1 0 0-1-1-1v-1q-1 0-1 0 0-1-1-1v-1q-1 0-1 0 0-1-1-1v-1q-1 0-2-2l-2-1v-1q-1 0-1 0 0-1-1-1v-1q-1 0-1 0 0-1-1-1v-1q-1-1-1-2h-1l-7-14q-6-13-8-22-2-8-2-20 0-13 4-24 4-10 11-18 6-8 15-13 8-5 18-9 9-2 23-2t31 4q16 6 23 10t7 4h1l5 4q4 4 4 5h1v1h1v1h1q0 1 1 1l7 8q7 8 7 8h1v1h1v1h1v1h1v1l1 1v1h2v-1l-1-1v-2l-1-2-1-1v-1q0-1-4-6-2-6-12-17t-17-15l-7-5v-1t-6-4q-4-3-13-6l-9-4q-1 0-6-2l-6-2-1-1-1-1h-4q-3 0-2-1 2-1 4-1zm87 77v-1q1 0 1 0v1h-1z" fill="#fcfdfe" stroke="#fcfdfe"/>
  <path d="m62 174l-2-3 5 4q5 4 9 8 5 5 10 7 4 2 5 3l1 1h2v1h1v1h2l1 1q1 1 1 1h1v1h1v1h1v2h-2l-1-1-1-1h-2l-1-1-1-1h-1q-1 0-5-3-5-3-13-10l-7-7h-1t-3-4z" fill="#b5e1f7" stroke="#b5e1f7"/>
  <path d="m265 118v-1h2l2 1 19 8q19 8 20 9l14 7q15 6 16 7l1 1h2l1 1 1 1h2v1l-1 1-2-1-2-1h-2q-3 0-34-8l-32-8-2-1-2-1h-3q-1-1-1-1v-14l1-1z" fill="#b4e1f8" stroke="#b4e1f8"/>
  <path d="m131 18h-3q-2 0-4 1-1 1 2 1h4l1 1 1 1 6 2q5 2 6 2v1q0 1 0 2h-2q-2-1-6-1-5-2-23-2t-29 4q-10 4-20 10-9 6-16 16t-11 20l-3 11-1 2v2h-2v-1l-1-1v-3h-1v-1l1-1v-2q0-2 3-9l2-7h1t0-1l6-9q6-8 13-15t18-11q11-6 22-8 11-4 23-4 13 0 13 0z" fill="#b6e1f7" stroke="#b6e1f7"/>
  <path d="m227 70v-1h1v3h2v1h1v1h1v2l4 5q3 5 4 5t3 2 9 4q6 2 6 3 1 1 2 1h2l2 1h1v3h-3v1l-7 7q-6 8-8 11-1 4-1 12t9 18q8 9 9 10 1 0 3 3 1 4 2 4 0 0 0 1h1v1h1v1h1v1h1-3q-4 0-5 1h-1v1h1v1h1v1h-2v-1 3h-2q-1 0-9-1l-8-1 2-2q2-2 2-2h1l-6-1q-5-1-10-1-4 0-6 2t-2 6l-2 4h-1v-1h-1v-1l-1-1-1-1v-2l-1-2-1-1v-3h1v-1h1v-1h1v-1h1v-1l5-1q5-1 12-2l7-1h7v-1h-1v-1h-1v-1h-1v-1h-1v-1h-1q0-1-2-3-1-2-5-7-5-6-5-14t1-12 7-11l5-6v-1h1v-3h-2q-1 0-8-4-6-4-10-10l-4-6v-2q0-1-1-2v-2h1v-2h1z" fill="#65b4e0" stroke="#65b4e0"/>
  <path d="m256 306l-4-4 4 3q4 3 4 4h2q1 0 3 3 2 4 1 3-2 0-2 0v-1t-2-2l-1-1h-1q-1-1-4-5z" fill="#7eb7df" stroke="#7eb7df"/>
  <path d="m255 202l2 1q0 1 1 1l29 16q29 16 29 16v1h-1v1h-1v1l-1 1v1h-1q0-1-10-5-10-6-10-5t2 4l2 3 34 38q34 38 35 38v1h1v2h1v1h1v1h1v1h1v1h1v1q1 0 1 1t-1 1-1-1l-1-1-1-1-1-1h-1v-1h-1v-1h-2v-1q-1 0-41-31l-40-32h-1v-1h-1v-1h-2v-1h-1v-1h-1v2l1 1 1 1v2l1 1 1 1 16 34q18 35 18 36v1l1 1 1 1v1l1 2 1 1v1l1 1v1h-2v-1l-1-1v-1h-1v-1h-1v-1h-1v-1h-1v-1h-1v-1h-1t-16-19l-16-19h-1v-1h-1v-1h-1v-1h-1v-1l-1-1-1-1v1h-1v1h1v2l1 1 1 1v2h1l10 19q9 18 10 19l1 1v1h1v1l1 1v2l1 1v1h-2v-1l-1-1v-1h-1v-1h-1v-1h-1v-1h-1t-15-18q-15-16-17-17h-2q-1-1-2-1l-1 1h-1q0-1-19-27l-19-27v-1l-1-1v-1h-2v-1h-1v-2h1l1 1h4v2h1v1h1l21 23q21 22 22 23l1 1v1h1v1h1v1h1v1h1v1h1v1h1v-2l-1-1-1-1v-1l-1-1-1-1v-1l-1-1q-1-1-12-19l-11-18-1-1-1-1v-1l-1-1-1-1v-2h-1v-1h-1v-1l-1-1v-1h1l1 1h1v2h1v1h1v1h1v1h1v1h1v1h1v1l23 25q23 25 23 25h1v1h1v1h1v1h1v1h1v1h1v1h2v-1l-1-1-1-1v-1l-1-1-1-1v-2h-1t-19-33l-20-33v-1l-1-1-1-1v-2l-1-1-1-1v-1l-1-1v-1h2v2h2v1h1v1h1v1h1v1h1l39 33q40 32 40 32v1h1v1h1v1h2v1h1v1h1v1-4h-1v-1h-1v-1h-1v-1h-1v-1h-1q0-1-35-36-34-35-40-37l-6-2-1-1-1-1h-1 3q3 0 3-1l-1-1t0-2q0-1-3-4-2-4 0-2zm4 7q0-1 0-1 1 0 1 0 0 1-1 1zm2 3t0-1q1 0 1 1 0 0-1 0zm9 72h1-1zm-19 5l-1-2 4 3q3 4 1 2-3-1-4-3zm95 9h1v1h1v2h-1l-1-1-1-1q0-1 1-1z" fill="#61a4d5" stroke="#61a4d5"/>
  <path d="m314 183l22 12q21 13 41 19t21 6h2t0 1h1v1q1 0 1 0v1h1v1h1v1h1v-1h1l6 3q6 2 10 4 5 3 4 3-2 1-2 1h-4q-3-1-10-1l-6-2h-3q-3 0-3 1l1 1h1l1 1 1 1 4 2q5 2 6 3h1v1h1l1 1 1 1h2v2h-2l-1-1-1-1h-4t-10-5q-11-4-11-3t2 2l3 1v1l46 30q47 30 74 51 26 20 41 33 15 14 34 35t27 31 9 11l1 1v1h1v1h1v2h2v1l1 1v1h-1l-1-1h-1v-1h-1v-1h-1v-1h-1v-1h-1v-1t-1-1h-1q-1 0-8-9-8-8-31-31-23-22-39-34l-16-13v-1h-1v-1h-1v-1h-1l-1-1q-1-1-32-23-32-22-82-54-51-32-61-40-10-6-15-9l-6-3h-2l-2-1-1-1h-2v1h1v1h1v1h1v1h2v1h1v1h1l22 16q22 16 22 17h1v1h1l1 1 1 1h1l1 1h1v1l-1 1-1-1h-1l-1-1-1-1h-2l-1-1q-1-1-15-7l-14-8h-2l-1-1-1-1h-4 1v1h1v1h2v1h1v1h1l26 20q27 18 27 19h1v1h2v1h1v1h2v1h1v1h1-4l-1-1-2-1h-2l-1-1q-1-1-37-18l-35-17-1-1-1-1h-2l-1-1h-1v-1l1-1v-1h1v-1h1v-1h2v1h1v1h2l12 7q12 7 13 7h1l1 1 1 1h2l1 1 1 1h1v-2h-1v-1h-1v-1h-2v-1h-1v-1h-1l-1-1q-1-1-28-21l-27-20h-1l-1-1-1-1h-1v-1h-1v-1h-2v-1h-1v-1h3l1 1 1 1h2l1 1 1 1 13 6q13 6 14 7l1 1h2l1 1 1 1h2l1 1h1v-2h-1l-1-1h-1v-1h-1v-1h-1l-1-1q-1-1-15-11l-15-12h-1v-1h-1v-1h-1l-1-1-1-1h-1v-1h-1v-1h2l1 1 1 1h3l1 1 1 1 33 14q33 14 34 15l1 1h2l1 1 2 1h4-1v-1h-1v-1h-2l-1-1-1-1h-1l-1-1q-1-1-23-15l-21-14h-1l-1-1q-1-1-2-1l-1-1h-1v-1t0-2v-1z" fill="#5ba2d4" stroke="#5ba2d4"/>
  <path d="m256 12v-1 9l-4 16q-4 16-3 26 1 11 3 14 2 4 11 6 9 4 21 4 13 0 26 0h14v1h-1v1h-2l-1 1-1 1h-2l-1 1q-1 1-12 7l-11 6h-2l-1 1-1 1h-1v1h-1v1h2l1 1 1 1h2l3 2q3 2 4 2h1t1 1v1q0 1-1 2v1h-1q-1-1-12-6-12-5-12-7 0-1 8-6l8-6h1l1-1 1-1h2v-1h1v-1h-12q-11 0-18-2-7 0-14-4t-10-8q-2-5-3-13t1-19l2-12 1-2 1-2v-2h-1l-1 1h-1v2h-1l-1 1h-1v1t-6 4q-5 3-11 4t-8-1q-2 0-6-5l-3-5h-1v-1h-1v-2h-1v-1h-1v-2h2v1h1v-1h2l1-1v1h1v1h1l4 6q5 7 10 7 4 0 12-6t11-10q3-2 3-3h1v-1h1v-1h1v-1h1v-1h1v-1h1z" fill="#054b83" stroke="#054b83"/>
  <path d="m109 0h32l21 6q20 6 26 5 7-1 10-2 2-1 3-2h1l1 3q1 3 2 4l1 1v2l1 1 1 1v1l1 1v1h-4l-1 1h-1v-1h-1v-1l-1-1q-1-1-2-4t-3-2q-2 0-9 1t-13-1q-5-2-20-6-14-4-30-4h-16v1h-3q-3 1-5 1h-3l-2 1-2 1h-3v-3h1v-1h4l7-2q7-2 7-2z" fill="#074e85" stroke="#074e85"/>
  <path d="m86 185l-3-4 14 9q14 8 27 12t17 5l4 1h2l-1 1-2 1h-10q-9 0-12-1t-12-4l-10-3q0-1-1-1v-1l-1-1v-1h-1t-1-1l-1-1h2v-1h-1v-1h-2v-1l-1-1v-1h-1l-1-1h-1t-4-5z" fill="#a9dcf4" stroke="#a9dcf4"/>
  <path d="m255 214h1l6 2q6 2 40 37 35 35 35 36h1v1h1v1h1v1h1v1h1v1l1 1v1h2v1h1v1h1v1h1v2h-1l-1-1h-1v-1h-1v-1h-1v-1h-1v-1h-1v-1h-1v-1h-2v-1h-1v-1h-1v-1t-40-32l-39-33h-1v-1h-1v-1h-1v-1h-1v-1h-3v1l1 1 1 1v2l1 1 1 1v1l20 33q19 33 19 33h1v2l1 1 1 1v1l1 1 1 1v1l1 1v1h-2v-1l-1-1v-1h-1v-1h-1v-1h-1v-1h-1v-1h-1v-1h-1t-23-25l-23-25v-1h-1v-1h-1v-1h-1v-1h-1v-1h-1v-1h-2v1h1v2l1 1 1 1v1l1 1 1 1 11 18q11 18 12 19l1 1v1l1 1 1 1v1l1 1 1 1v2h-1v-1h-1v-1h-1v-1h-1v-1h-1v-1h-1v-1l-1-1q-1-1-22-23l-21-23h-1v-1h-1v-2q0-1-5-8l-5-7v-8h1v-1h8q8 0 15 2 6 2 8 3l1 1h2l1 1 1 1h2v-1l-1-1v-1h-1v-1h-1l-2-4q-2-4 3-4t7 1 3 1zm-20 25q1 0 1 0 0 1 0 1-1 0-1-1z" fill="#f7f9fc" stroke="#f7f9fc"/>
  <path d="m156 277v-5l16 20q16 19 16 20v1h1v1h1v1h1v1h1v1h1v1h1v1-5l-1-2-1-1v-1q0-2-4-14l-4-11-1-1-1-2v-3l-1-1v-1h1v1h1v1h1v1l1 1 1 1v3l1 1 1 1v-1l1 1 1 1v1h1v1h1v-2l15 40q15 41 16 42l1 1v3l1 2 1 1v2l1 1v1h-2v-1l-1-1v-1l-1-1-1-1v-1h-1v-1h-1v-1l-1-1q-1-1-29-39-30-38-30-38h-2v-2h2l1-1h-1v-1q0-1-3-4-2-3-3-5 0-2 1-1t1-4z" fill="#5daad9" stroke="#5daad9"/>
  <path d="m35 65h1l-3 7q-3 8-3 10v2l-1 1v1l-1 6q-2 5-1 20 1 16 4 26 4 10 7 14 4 4 4 4v1q0 1 1 1v1h1v2l4 8q4 8 4 13 1 5 8 8 6 2 9 6t5 7q1 3 8 6t10 5q2 2 2 2h1v1h1v2l1 1 1 2v2l-1 1v1h-2v-1l-1-1v-1t-2-2v-2h-1v-1h-5v5h1v1h1v-1l1 1q1 0 1 2v2h1v1h1v3h-2v1h-1v1h-1v-1h-1v1h-1v-4q0-2-1-2-1-1-5-3-4-1-22-1l-17 2h-4l1-1 1-1h3l1-1 1-1h1q1 0 7-4l6-4h2v-2l1-1 1-1v-1l-1-1-1-1v-1h-2l-1-1q-1-1-12-4l-11-3-1-1-1-1h2v-1t2-2 2-7v-8l-1-1-1-1v-2l-1-1q-1-1-5-11-6-10-9-24-3-13-3-28t1-22l2-8h1l1-1 1-1 1-2 1-1v1l1-2q1-1 1-2v-2h1l1-1q2-1 3-2 1-2 2-2z" fill="#59a4d5" stroke="#59a4d5"/>
  <path d="m385 194v-1l49 24q48 23 49 24l1 1h2l1 1 1 1h2v1h1v1h-3l-3-1-3-1h-4q-3 0-28-5l-26-4t2-1q1 0-4-3-4-2-10-4l-6-3h-1v1h-1v-1h-1v-1h-1v-1h-2v-2h2l1 1 1 1h4l5 2q5 2 7 2h3l2 1 2 1h4l-1-1-1-1h-2l-1-1-1-1h-1l-2-1q-1-1-4-2l-3-2v-1h1v-3h-1l-1-1h-2v-1h-1v-1h-1q-1 0-6-3t-9-6l-5-3v-1q0-1-2-2t-3-3z" fill="#5aa7d7" stroke="#5aa7d7"/>
  <path d="m67 166l-2-4 9 8q8 9 9 10v1h-1q-1-1-6-6l-6-5v-1t-3-3z" fill="#addef4" stroke="#addef4"/>
  <path d="m295 162l1 1 1 1 55 26q55 26 56 26h1l1 1 1 1h3v1h1l3 2q3 1 4 2l2 1h1l1 1 1 1h2l1 1 1 1h-4l-2-1-2-1h-3q-2 0-7-2l-5-2h-4l-2-1h-1v-1q-1 0-1 0h-2q-1 0-21-6t-41-19l-22-12v-1h-1v-1h-1v-1h-1v-1q-1 0-8-7l-7-6v-1h-1v-1h-1v-2t1 0z" fill="#b3e0f7" stroke="#b3e0f7"/>
  <path d="m211 192l3-1h2v2h-1l-1 1h2v5l1 1 1 1v1h1l2 1q3 1 2 0 0-1 9-1 10 0 14 2 5 2 4 0 0-2-2-3-1 0-2-1 0-2-1-2t-1-2 1-2 1-2q0-1 1-1t1 1l5 5q5 5 5 6v1h-1q-1 1 1 3t1 2q-1 1 1 1 2 2-1 2t-3 1v1h-1q-1 0-3-1t-7-1-3 4l2 4h1v1h1v1l1 1v1h-2l-1-1-1-1h-2l-1-1q-2-1-8-3-7-2-15-2h-8v1h-1v8l6 8q6 8 5 8-1-1-1-1h-2t-1 0l-1 1v-1t-1 0q-1-1-1-1v-1t-5-3q-4-3-10-3t-6 2q-1 2 1 4l1 2h1q1 0 16 16 14 16 15 16v1q0 1-1 1h-2v-1h-1v-1h-1l-1-1h-1v-2h-1q0-1-1-1t-9-8l-7-9h-1v-1h-1v-1h-1v-1h-1v-1h-1v-1h-3l1 2 1 1v2l1 1 1 1 2 4q2 4 6 7 5 4 6 4 0 0 0 1h1v1h1v1h1v1h-1q-1 0-2 0-2 0-2 1v1l-1 2v1h-2v1l1 2v1h1v1q1 0 1 0v1l1 1q1 0 1 1h1l3 5q4 4 4 4v1l1 1 1 1v1l1 2 1 1v2h-1v-1h-1v-1h-1v-1h-1v-2h-1v-1h-1v-1h-1t-1-2q-2 0-9-9-7-8-9-11l-2-4h-3l-1-1-1-1h-2l-1-1h-1v1l1 1v2l1 1 1 2v3l1 1q1 2 1 3v1l1 2 1 1v5h-1v-1h-1v-1l-1-1-1-1v1l-1-1-1-1v-3l-1-1-1-1v-1h-1v-1h-1v-1h-1v-1q-1 0-5-10-4-11-6-13l-3-1-1-1-1-1h-8v1h-1v11q0 8 0 9v7q0 6 2 9t2 4v1h1l-1 1h-2v2h1v2l-1 2v-2l-1-1-1-2v-1q0-1-2-3 0-3-18-26-16-23-21-23-4-1-9 1-6 2-21 12l-15 9v1h-2v1h-1v1h-1v1h-1v1h-2v-1l1-1v-1h1v-1h1v-1h1v-1h1v-1l1-1q1-1 1-2 2-1 9-12l7-12h1v-1h1v1h1v-1h1v-1q0-2 1-2h1v-1h-1v-1h-1v-2q0-2-1-2l-1-1v1h-1v-1h-1v-5h5v1h1v2q2 2 2 2v1l1 1v1h2v-1l1-1h13q13 0 20 4t9 4 6-4q5-4 9-6t9-2 8-4q2-4 5-5t9-3q6 0 7-2t3-2q1 0 8 0h10v-2h-1v-1q-1 0-2-3l-1-3h-1v-1h1v-2h1zm42 9q0-1 1-1 2 1 2 2t-1 0q-1 0-2-1zm0 11v-1q1 0 1 1h-1z" fill="#5ca7d7" stroke="#5ca7d7"/>
  <path d="m158 250h7l1 1 1 1 3 1q2 2 6 13 4 10 5 10v2l1 1v3l1 2 1 1 4 11q4 12 4 14v1l1 1 1 2v5-1h-1v-1h-1v-1h-1v-1h-1v-1h-1v-1h-1v-1q0-1-16-20l-16-20v-1q0-1 0-9v-11h1v-1h1z" fill="#b5e2f8" stroke="#b5e2f8"/>
  <path d="m201 20l1 1v1t0 1h1v1l1 1v2h1v1h1l3 5q4 5 6 5 2 2 8 1t11-4q6-4 6-4v-1h1l1-1h1v-2h1l1-1h1v2l-1 2-1 2-2 12q-2 11-1 19t3 13q3 4 10 8t14 4q7 2 18 2h12v1h-1v1h-2l-1 1-1 1h-1l-8 6q-8 5-8 6 0 2 12 7 11 5 12 6h1l1 1q2 0 2 1h1l-1 1q-1 0-1 1t1 1q2 1 2 2v1l1 1q1 0 1 1t-1 0q-1 0-1 1t1 2q1 0 1 1t0 2q-1-1-20-9l-19-8-2-1h-2v1l-1 1v14q0 1 0 1h1v1l1 1v1h1v1h2v1h1v1l4 3q4 3 14 5 11 2 14 3l4 1h5l-5 1h-5v1l-1 1v1h2v1h1v1h1l1 1h1v2h-1l-1-1h-1l-1-1q-1-1-4-1h-3v-1h-1v2h-1v1h-1v2h1l1 1v1h1v1h1v1l7 6q7 7 8 7v1h1v1h1v1h1v2h2v2h-1v1h-1v-1h-2v-1h-1v-1h-2v-1h-1q0-1-6-5l-7-4h-1l-1-1-1-1h-2v-1h-1v-1h-2v1l1 1v1l1 1 1 1v1h1l2 3q1 2 2 2v1h1v2h1v1h1v1l1 1v1h-2l-1-1-1-1h-2l-1-1-1-1h-1q-2 0-13-4l-11-4h-2v-3 1h2v-1h-1v-1h-1v-1h1q1-1 5-1h3-1v-1h-1v-1h-1v-1h-1q0-1 0-1-1 0-2-4-2-3-3-3-1-1-9-10-9-10-9-18t1-12q2-3 8-11l7-7v-1h3v-3h-1l-2-1h-2q-1 0-2-1 0-1-6-3-7-2-9-4t-3-2-4-5l-4-5 1-3q1-3 1-9 0-5 1-5t1-4q0-3 1-6 1-2-1-3-1-1-1-3l1-2v2l1-1v-1h1l1-1h-5q-2 0-4 2t-3 2q-2 1-2 0t-1-1q-1 1-7-1-6 0-7-2 0-1-2-2t-6-10q-4-8-5-8t-1-1-1-1-1 2q-1 1-10 1-10 1-19-1l-9-2q-1 0-6-3-6-3-6-3 0-2-15-4l-15-2h7l-7-1h-6v-1h16q16 0 30 4 15 4 20 6 6 2 13 1t9-1q2-1 3 2t2 4z" fill="#57a0d3" stroke="#57a0d3"/>
  <path d="m186 64l-5-6 5 4q4 3 5 4 1 0 1 0v1t1 1q1 0 1 1v1h-1q-1 0-7-6z" fill="#bae3f6" stroke="#bae3f6"/>
  <path d="m185 268v-1h1l1 1h2q1 0 2 1 0 1 1 1h2l2 4q2 3 9 11 7 9 9 9 1 2 1 2h1v1h1v1h1v2h1v1h1v1h1v1h1v-2l-1-1-1-2v-1l-1-1-1-1v-1t-4-4l-3-5v-1q0-1 3-1 2 1 2 1v1q0 1 2 3t2 3l28 31q26 31 27 31v1h1v1h1v1h1v2h1v1h1v1h2v-1l-1-1-1-1v-2l-1-1-1-1v-1q0-1-4-8l-2-6-1-1-1-1v-2h-1v-1h-1v-2h2v2h1v1h1v1h1v1h1v1l5 9q5 8 6 8t1 1 1 2l1 1v1h1v1h1v1h1v1h1t0 1h1q0 1 1 1l16 31q16 31 16 32v1l1 1 1 1v2l1 1 1 1v2h-1v-1h-1v-1l-1-1-1-1v-1h-1v-1h-1v-1h-1q0-1-65-77l-66-76v-1l-1-1-1-1v-1h-1v-1h-1v-1h-1v-1h-1l-1-1z" fill="#5ca9d8" stroke="#5ca9d8"/>
  <path d="m105 5h9l7 1h-7l15 2q15 2 15 4 0 0 6 3 5 3 6 3v1q0 1 0 2l-1 1h-1q-2 0-4-1l-1-1h-2q-2 0-9-1l-7-1t-13 0q-12 0-23 4-11 2-22 8-11 4-18 11t-13 15l-6 9t-1 1l-1 1q-2 1-4 2l-1 1h-1v2q0 1-1 2l-1 2v-1l-1 1-1 2-1 1-1 1h-1v-2l1-1v-3l1-2 1-1v-2l7-11q6-12 17-23 12-11 23-17t15-8 4-2h3l2-1 2-1h3q2 0 5-1z" fill="#5ba6d7" stroke="#5ba6d7"/>
  <path d="m453 328h9l21 10q21 8 29 13 9 5 10 5h1v1h1v1h2l1 1q1 0 1-1v-1h-1v-1h-1v-1h-1v-1h-1l-1-1q-1-1-13-10l-11-9 6 2q6 2 11 5t6 4l1 1h1l2 1 1 1h1v-3l16 13q16 12 39 34 23 23 31 31 7 9 8 9v1q0 1 8 11 7 9 6 9t-1-1q-1-1-9-10-10-9-20-17-10-9-34-25-24-17-39-26l-14-8v-1h-1v-1h-2l-1-1-1-1h-2v-1 3h1l1 1 1 1h1v1h1v1h1l53 43q54 43 55 43h1v1h1v1h1v1h1v1h2v1h1v1h1-4l-1-1-1-1h-2l-1-1q-1-1-33-19l-32-18h-1l-1-1-1-1h-2l-1-1h-1v1l1 1v1h1v1h1v1h1v1h1v1l34 34q34 34 69 68 35 33 35 33v1h1v1h1v1h1v1h1v1h1v1h1v1h2v1l1 1v1h-1l-1-1h-1v-1h-1v-1h-1l-1-1-1-1h-1l-1-1-1-1h-1v-1t-8-6l-8-5v-1h-1v-1h-2v-1h-1v-1h-2v-1h-1v-1h-1v2h1v1h1v1h1v1h1v1h1v1h1v1l32 31q32 32 33 32v1h1v1h1v1h1v1h1v1h1v1h1v1h2v2h-2v-1h-1v-1h-1l-1-1-1-1h-2v-1h-1v-1h-1q-1 0-69-47l-69-47h-1l-1-1-1-1h-1l-1-1-1-1h-1v2h1l1 1 1 1h1v1h1v1h1v1l36 34q36 34 36 34v1h1v1h1v1h1v1h1v1h1v1h1v1h2v1l1 1v1h-1l-1-1h-1v-1h-1v-1h-1l-1-1-1-1h-1l-1-1-1-1h-1t-6-4l-5-4v-1h-1v-1h-2v-1h-1v-1h-1v-1h-1q0-1-83-63l-84-62v-1h-1v-1h-2v-1h-1v-1h-1l-1-1h-1v1l1 1v1l1 1 1 1v1l1 1 1 1 16 21q16 22 31 38t29 28q15 12 15 12h1l1 1 1 1h1v1h1v1h2v1h1v1h-2l-1-1-1-1h-3v-1h-1v-1h-1q-1 0-8-4-6-4-27-18t-41-32-68-68l-48-52h-2v-1l-1-1v-1h1l1 1h1q1 0 1 0h1t2-1l1-1h-1v-2h-1v-1h-1v-1l-1-1v-1h2v1h1v1h1v1h1v1q0 1 1 0l35 36q34 36 38 40 4 3 4 4v1h1v1h1v1h1v1h2v1h1v1h2v-1h-1v-1h-1v-2l-1-1-1-1v-1l-1-1q-1-2-16-28l-15-27-1-1-1-1v-6 1h3l1 1 1 1h1l92 62q92 62 92 62v1h1v1h2l1 1 1 1h3v-3h-1v-1h-1v-1h-1v-1h-1v-2h-1q-1 0-47-46l-46-46v-1h-1v-1h-1v-1h-1v-1h-1v-4 1h1v1h2v1h1v1h2v1l4 3q4 2 6 4 3 0 4 1l1 1h1l1 1 1 1h2v1h1v1h2v-1h-1v-1h-1v-1h-1v-1h-1v-1h-1v-1h-1v-1h-1q0-1-29-29l-29-29v-1h-1v-1h-1v-1h-1v-1h-1v-1l-1-1v-1h-2v-2h2v1h1v1h2l1 1q1 1 2 1h1l1 1 1 1h1l1-1 1-1h-1v-1h-1v-1h-2v-1h-1v-1h-1v-1h-1q0-1-18-16l-19-15v-1h-1v-1l-1-1v-1h-2v-1h-1v-1h-1zm-65 61l2 1h1v1h1v2h-1l-1-1h-2l-1-1q-1 0-1-1t2-1zm248 143q0-1 1-1t1 1v1h-1q-1 0-1-1z" fill="#bde5f9" stroke="#bde5f9"/>
  <path d="m192 246h3v1h1v1h1v1h1v1h1v1h1l7 9q8 8 9 8t1 1h1v2h1l1 1h1v1h1v1l2 2q2 2 2 2v1h1v1h1v1h1v1h2v1h1v2h-1l-1-1h-1v-1h-1v-1h-1v-1h-1v-1h-1q-1 0-7-5l-5-4v-1q-1 0-1 0 0-1-1-1v-1q-1 0-1 0-1 0-6-4-4-3-6-7l-2-4-1-1-1-1v-2l-1-1-1-2z" fill="#a8d6f1" stroke="#a8d6f1"/>
  <path d="m211 270l-1-2 7 6q7 6 8 6h1v1h1v1h1v1-3h-1v-1h-1v-1t-2-2l-2-2h2q1 0 1-1l13 14q14 14 14 15 0 0 0 1h1q0 1 1 1 0 0 0 1h1q0 1 1 1 0 0 0 1h1q0 1 1 1 0 0 0 1h1q0 1 1 1v1h1l1 1q2 2 2 2v1t2 0q1 1-2-2l-2-3v-1h-1v-1h-1v-2h-1v-1h-1v-1q0-1-2-3l-1-2v-1q0-1 1-1h1q0 1 1 1 0 0 0 1h1l24 31q25 30 71 79 47 49 64 64t38 28q20 13 24 16 5 3 6 3h1l1 1 1 1h2l1 1 2 1h2v-1h-1v-1h-2v-1h-1v-1h-1l-1-1-1-1h-1t-10-8q-9-8-24-23-16-15-30-33-14-16-29-39l-15-23h-1v-1h-1v-2h-1v-1h-1v-2l-1-1v-1h2v1l1 1v1h1v1h1v1h1v1h1l48 52q48 50 68 68t41 32 27 18q7 4 8 4h1v1h1v1h3l1 1 1 1h2v-1h-1v-1h-2v-1h-1v-1h-1l-1-1-1-1h-1t-15-12q-14-12-29-28t-31-38l-16-21-1-1-1-1v-1l-1-1-1-1v-1l-1-1v-1h1l1 1h1v1h1v1h2v1h1v1l84 62q83 62 83 63h1v1h1v1h1v1h1v1l-1 1-1-1h-1v4h-2l-1-1h-2v-1h-1q0-1-64-48l-63-47v-1h-1v-1h-1l-1-1-1-1h-3 1v1h1v1l1 1 1 1v1h1v1h1l17 18q17 18 35 33 19 15 48 35 30 20 31 20h1v1h1v1h2v1h1v1h2v1h1v1h2v1h1v1h-3v-1h-1v-1h-3l-1-1-1-1h-2l-1-1q-1-1-14-6l-12-5-1-1h-1v-1h-2l-1-1-1-1h-2q-1 0-16-8-16-6-37-18-21-11-41-21-21-9-41-20t-41-25q-20-14-34-27t-62-64l-48-51h-1v-1h-1v-1h-1v-1h-1v-1h-1v-1h-1v-1h-2v1l1 1 1 1v2l1 1q1 1 1 2v1h1v1h1v2h-2v-2h-1v-1h-1v-1h-1v-1h-1v-1l-1-1q-1-1-1-2t-1-1-6-8l-5-9v-1h-1v-1h-1v-1h-1v-1h-1q0-1 0-1h-1q-1-1-1-1v-1t-1-1-21-19q-20-19-25-22l-5-4t-2-1q-3 0-3 1v1h-1q0-1-1-1l-1-1v-1t-1 0v-1h-1v-1l-1-2v-1h2v-1l1-2v-1q0-1 2-1t1-2zm20 14q1 0 1 0-1 0-1 0z" fill="#579fd2" stroke="#579fd2"/>
  <path d="m156 19v-1l9 2q9 2 19 1 9 0 10-1 0-2 1-2t1 1 1 1 5 8q4 9 6 10t2 2q1 2 7 2 6 2 7 1 1 0 1 1t2 0q1 0 3-2t4-2h5l-1 1h-1v1l-1 1v-2l-1 2q0 2 1 3 2 1 1 3-1 3-1 6 0 4-1 4t-1 5q0 6-1 9l-1 3v-2h-1v-1h-1v-1h-2v-3h-1v1h-1v2h-2v-4q0-3-1-9v-6h-1q-1 1-6 0t-11-4-11-11q-6-7-13-8-7-2-13-4l-7-2h-2l-2-1q-2-1-2-1l1-1q0-1 0-2z" fill="#60addb" stroke="#60addb"/>
  <path d="m304 122l1-1h1v1l44 20q44 22 45 22h1l1 1 1 1h2l1 1 1 1h2-12q-4 0-37-4l-33-4h-3t-3 0q-2 0-2 0-1 1 0 1t1 1l1 2v2h-2v-1h-1v-1h-2l-1-1-1-1h-2v-1h-1v-1h-1l-1-1v-1h-1v-1h-1v-1h-2v-1l1-1v-1h5l5-1h-5l-4-1q-3-1-14-3-10-2-14-5l-4-3v-1h-1v-1h-2v-1h-1v-1h-1v-1h-1v-2h1l1 1h2l2 1 2 1 32 8q31 8 34 8h2l2 1 2 1 1-1v-1h-2l-1-1-1-1h-2l-1-1q-1-1-16-7l-14-7q0-1 0-2t-1-1q-1-1-1-2t1-1q1 1 1 0t-1-1l-1-1v-1q0-1-2-2-1 0-1-1t1-1z" fill="#5facdb" stroke="#5facdb"/>
  <path d="m321 211v-1h2l1 1 2 1h2l6 3q5 3 15 9 10 8 61 40 50 32 82 54 31 22 32 23l1 1h1v1h1v1h1v3h2v2h-1l-1-1h-1l-1-1-2-1h-1l-1-1q-1-1-6-4t-11-5l-6-2h-1t-21-15q-21-14-26-17-6-3-6-4t-3-2-3-2-1-1q-2 0-2-1t-4-2q-4-2-4-3t-2-1q-1 0-1-1t-1-1q-2 0-2-1t-3-2-9-5q-7-4-7-5t-1-1q-2 0-14-7-11-7-11-8v-1q1 0 0-1v-1h-1l-1-1-1-1h-1v-1h-1q0-1-22-17l-22-16h-1v-1h-1v-1h-2v-1h-1v-1h-1v-1h-1z" fill="#bce4f9" stroke="#bce4f9"/>
  <path d="m510 360l2 1v1h2l1 1 1 1h2v1h1v1l14 8q15 9 39 26 24 16 34 25 10 8 19 17 9 8 10 8t-6-8-7-9v-1h1q1 1 1 1v1h1v1h1v1h1l1 1h1q0 1 1 1 0 0 0 1h1l9 12q9 11 36 33t28 22h1v1h1v1h1v1h1v1h2v1l2 1q1 0 1 1t-1 1-1-1h-1v-1h-2v-1h-1v-1h-2l-1-1-1-1h-1q-1 0-48-28l-47-26-1-1-1-1h-1l-1-1-1-1h-2v-1 3h1v1h1v1h1v1h1v1h1l90 86q91 86 94 89t4 3v1h1v1h1v1h1v1h1v1h1v1h1l1 1 1 1h1v2h-2v-1h-1v-1h-1v-1h-1v-1h-2v-1h-1v-1h-1l-1-1-1-1q-1 0-30-22l-30-22-1-1-1-1h-1l-1-1-1-1h-1v-1h-1v-1 3h1v1h1v1h1v1h1v1h1v1l39 38q40 38 40 38v1h1v1h1v1h1v1h1v1h1v1h1l1 1h1v2h-1l-1-1h-1v-1h-1v-1h-2v-1h-1v-1h-2v-1h-1q0-1-68-47l-68-46-1-1-1-1h-1l-1-1-1-1h-1v-1 3h1v1h1v1h1v1h1v1h1l51 49q50 49 51 49h1v1h1v1h1v1h1v1h1v1h1v1h2v2h-2v-1h-1v-1h-1v-1h-1v-1h-2v-1h-1v-1h-1l-1-1q-1-1-57-43l-56-42h-1v-1h-1v-1h-2v-1h2v-4h1l1 1 1-1v-1h1v1h1v1l5 4q6 4 6 4h1l1 1 1 1h1l1 1 1 1h1v1h1v-2h-1v-1h-1v-1h-1v-1h-1v-1h-1v-1h-1v-1t-36-34l-36-34v-1h-1v-1h-1v-1h-1l-1-1-1-1h-1v-2h1l1 1 1 1h1l1 1 1 1h1l69 47q68 47 69 47h1v1h1v1h2l1 1 1 1h1v1-3h-1v-1h-1v-1h-1v-1h-1v-1h-1v-1q-1 0-33-32l-32-31v-1h-1v-1h-1v-1h-1v-1h-1v-1h-1v-1h-1l-1-1h-1v-2h1l1 1h1v1h1v1h2v1h1v1h2v1h1v1l8 5q8 6 8 6v1h1l1 1 1 1h1l1 1 1 1h1v1h1v-2h-1v-1h-1v-1h-1v-1h-1v-1h-1v-1h-1v-1t-35-33q-35-34-69-68l-34-34v-1h-1v-1h-1v-1h-1v-1h-1v-1l-1-1v-1h1l1 1h2l1 1 1 1h1l32 18q32 18 33 19l1 1h2l1 1 1 1h4-1v-1h-1v-1h-2v-1h-1v-1h-1v-1h-1v-1h-1q-1 0-55-43l-53-43h-1v-1h-1v-1h-1l-1-1-1-1h-1v-1h-1q0-1-1-1t-1-1 1-1zm194 209q0-1 0-1 0 1 0 1zm-44 5t0-1 0 1zm60 11q0-1 0-1 0 1 0 1zm-40 20q0-1 0-1 0 1 0 1z" fill="#559ed1" stroke="#559ed1"/>
  <path d="m312 241h2l1 1h2l1 1 1 1 35 17q36 17 37 18l1 1h2l2 1 1 1h4-1v-1h-1v-1h-2v-1h-1v-1h-2v-1h-1q0-1-27-19l-26-20h-1v-1h-1v-1h-2v-1h-1v-1h-1 4l1 1 1 1h2l14 8q14 6 15 7l1 1h2l1 1 1 1h1l1 1 11 7q11 8 13 8 1 0 1 1t7 5q6 4 9 5t3 2 2 1q1 0 1 1t1 1q2 0 2 1t4 3q4 1 4 2t2 1q1 0 1 1t3 2 3 2 6 4q5 3 26 17 21 15 21 15h1l11 9q12 9 13 10l1 1h1v1h1v1h1v1h1v1h2v2h-2l-1-1-1-1h-2v-1h-1v-1h-1q-1 0-10-5-8-5-29-13l-21-10h-9 1v1h1v1h2v1l1 1v1h1v1l19 15q18 15 18 16h1v1h1v1h1v1h2v1h1v1h1l-1 1-1 1h-1l-1-1-1-1h-1q-1 0-2-1l-1-1h-2v-1 4h1v1h1v1h1v1h1v1l29 29q29 28 29 29h1v1h1v1h1v1h1v1h1v1h1v1h1v1h-2v-1h-1v-1h-2l-1-1-1-1h-1l-1-1q-1-1-4-1-2-2-6-4l-4-3v-1h-2v-1h-1v-1h-2v-1h-1v-1 4h1v1h1v1h1v1h1v1l46 46q46 46 47 46h1v2h1v1h1v1h1v1h1v2h1l1 1h1v1h1v2h-1l-1-1h-2v-1h-1v-1h-2l-1-1-1-1h-2v-1h-1v-1t-92-62l-92-62h-1l-1-1-1-1h-3v-1 6l1 1 1 1 15 27q15 26 16 28l1 1v1l1 1 1 1v2h1v1h1v1h-2v-1h-1v-1h-2v-1h-1v-1h-1v-1h-1v-1q0-1-4-4-4-4-38-40l-35-36q-1-1-9-9t-22-22l-15-15h-2v-1h-1v-1h-1v-1h-1v-1h-1v-1h-1v1h-1v1h1v2l1 1 1 1v2h1v1l21 36q22 37 22 38v1l1 1 1 1v3l1 1v1h2v2h-2v-1h-1v-1h-1v-1h-1v-1h-1l-1-1h-1v-1l-1-1q0-1-11-11-11-12-29-31-18-20-19-20-1-1-11-12l-11-11q-1-1-1-1v-1t-1 0q-1-1-10-19l-10-19h-1v-2l-1-1-1-1v-2h-1v-1h-1v-3h1v1h1v1l1 1 1 1v1h1v1h1v1h1v1h1l16 19q16 19 16 19h1v1h1v1h1v1h1v1h1v1h1v1h2v-1l-1-1-1-2v-1l-1-1-1-1v-1q0-1-18-36l-16-34-1-1-1-1v-2l-1-1-1-1v-2h1v1h1v1h2v1h1v1h1l40 32q40 31 41 31v1h2v1h1v1h1l1 1 1 1h2v-1h-1v-1h-1v-1h-1v-1h-1v-1h-1v-2h-1v-1q-1 0-35-38l-34-38-2-3q-2-3-2-4t10 5q10 4 10 5z" fill="#fafcfe" stroke="#fafcfe"/>
  <path d="m714 616l2 1v1h1v1h1v1h2v1h1v1l67 45q66 45 67 46l1 1h1l1 1 1 1h1l1 1 1 1v-3h-1v-1h-1v-1h-1v-1h-1v-1h-1v-1q-1 0-34-32l-33-32v-1h-1v-1h-1v-1h-1v-1h-1v-1h-1v-1h-1l-1-1-1-1h-1v-1h-1v-2h1l1 1h1v1h1v1h1v1h1v1h2v1h1v1h1l1 1 1 1 32 24q32 24 33 24h1v1h1v1h1l1 1 1 1h1l1 1v47h-19l-1-1v-1h-1v-1h-1v-1h-1v-1h-1v-1h-1v-1q-1 0-59-56l-59-57h-1v-1h-1v-1h-1v-1h-1v-1h-1v-1h-1q0-1-1-2-2-2 0-1z" fill="#fcfdfd" stroke="#fcfdfd"/>
  <path d="m410 244h1l1 1 1 1h2v1h1v1l42 28q42 28 68 48t44 37 42 45q22 27 33 41 10 13 64 57 54 42 55 43l1 1h1v1h1v1h1l1 1h1v2h-1l-1-1h-1l-1-1-1-1h-2l-1-1q-1-1-60-34l-58-33-1-1-1-1h-1l-1-1-1-1h-2v-1h-1v2h1l1 1h1v1h1v1h1v1h1v1l108 102q108 104 108 104h1v1h1v1h1v1h1v1h1l1 1v2l-1-1h-1l-1-1-1-1h-1v-1h-1v-1h-1q-1 0-33-24l-32-24-1-1-1-1h-1v-1h-1v-1h-2v-1h-1v-1h-1v2h1v1h1v1h1v1h1v1h1v1h1v1l33 32q33 32 34 32v1h1v1h1v1h1v1h1v1h1v3l-1-1-1-1h-1l-1-1-1-1h-1l-1-1q-1-1-67-46l-67-45v-1h-1v-1h-2v-1h-1v-1h-1v-1 3h1v1h1v1h1v1h1v1h1l59 57q58 56 59 56v1h1v1h1v1h1v1h1v1h1v1l1 1h-2l-1-1v-1h-1l-1-1-1-1h-1l-1-1q-1-1-67-51-67-50-108-68l-41-20h-1v-1h-1v-1h-1v-2h-2v-2h6v1h1l1 1 12 5q13 5 14 6l1 1h2l1 1 1 1h3v1-3h-2v-1h-1v-1h-2v-1h-1v-1h-1q-1 0-31-20-29-20-48-35-18-15-35-33l-17-18h-1v-1h-1v-1l-1-1-1-1v-1h-1v-1h-1 3l1 1 1 1h1v1h1v1l63 47q64 47 64 48h1v1h2l1 1v1h2v1h1v1h1l56 42q56 42 57 43l1 1h1v1h1v1h2v1h1v1h1v1-3h-1v-1h-1v-1h-1v-1h-1v-1h-1q-1 0-51-49l-51-49h-1v-1h-1v-1h-1v-1h-1v-1h-1v-1h-1v-1h-2v-1h-1v-2h1l1 1h1v1h1v1h1l1 1 1 1h1l1 1 1 1 68 46q68 46 68 47h1v1h2v1h1v1h2v1h1v1h1v-2h-1v-1h-1v-1h-1v-1h-1v-1h-1v-1h-1v-1t-40-38l-39-38v-1h-1v-1h-1v-1h-1v-1h-1v-1h-1v-1h-1l-1-1-1-1h-1v-2h2v1h1v1h1v1h1v1h1l1 1 1 1h1l1 1 1 1 30 22q29 22 30 22l1 1 1 1h1v1h1v1h2v1h1v1-3h-1v-1h-1v-1h-1v-1h-1v-1h-1v-1q-1 0-4-3t-94-89l-90-86h-1v-1h-1v-1h-1v-1h-1v-1h-1v-1h-1v-1h-2v-2h2v1h1v1h2l1 1 1 1h1l1 1 1 1 47 26q47 28 48 28h1l1 1 1 1h2v1h1v1h2v1-3h-2v-1h-1v-1h-1v-1h-1v-1h-1q-1 0-28-22t-36-33l-9-12v-1q-1 0-1 0 0-1-1-1v-1q-1 0-1-1v-1h-1v-1h-1v-1l-1-1q-1-1-9-11t-27-31-34-35q-15-13-41-33-27-21-74-51l-46-30v-1l-4-1q-3-2-3-3t11 4q12 5 12 5zm223 232t0-1q1 0 1 1 0 0-1 0zm-13 121q0-1 0-1v1zm41 15t0-1h1v1t-1 0zm51 4t0-1 0 1zm68 20v-1h1q1 0 1 1t-1 1-1-1zm21 8t0-1q1 0 1 1 0 0-1 0z" fill="#064b83" stroke="#064b83"/>
  <path d="m252 290l-2-3 4 3q4 4 21 24t17 20h1v1h1v1h1v1h1v1h1q1 0 1-1v-1h-1t-1-2l-1-2 3 2q2 3 11 13 9 9 10 10 1 0 19 20 18 19 29 31 11 10 11 11l1 1v1h1l1 1h1v1h1v1h1v1-6l-1-1-1-1v-1q0-1-22-38l-21-36v-1h-1v-2l-1-1-1-1v-2h-1v-1h-1v-2h2v1h1v1h1v1h1v1h1v1h1v1h2l15 15q14 14 22 22t9 9-1 1l-2 1h1v1h1v1h1v1h1v1h1v1h1v2h-1l-1-1h-2v-1h-1v-1h-1q-2 0-4-1h-1v-1h-1v-1h-2v-1h-2v2h1v1h1v2h1v1h1l15 23q15 23 29 39 14 18 30 33 15 15 24 23 10 8 10 8h1l1 1 1 1h1v1h1v1h2v1h1v1h-2l-2-1-1-1h-2l-1-1-1-1h-1q-1 0-6-3-4-3-24-16-21-13-38-28t-64-64q-46-49-71-79l-24-31v-1q-1 0-1 0 0-1-1-1v-1q-1 0-1-1v-1h-1t-3-4zm131 91v-1h2v1h1v1q0 1-1 1l-1-1-1-1zm2 6q1 0 1 0 0 1 0 1-1 0-1-1z" fill="#bde5f9" stroke="#bde5f9"/>
  <path d="m294 158v-1h1v1h3q3 0 4 1l1 1h2t1 1h1v1h2l1 1 1 1h2v1h1v-2q1-2 0-2t0-1 2 0q3 0 3 0h1l1 1 1 1h2l1 1 1 1 30 14q29 14 29 15v1q1 2 3 3t2 2v1l5 3q4 3 9 6t6 3h1v1h1v1h2l1 1h1v3h-1v1h-1v-1h-3l-1-1-1-1h-1q-1 0-56-26l-55-26-1-1-1-1q-1 0-1 0v1l-1-1h-1v-2h1v-1h1v-1z" fill="#61aedc" stroke="#61aedc"/>
  <path d="m81 238l2-6 1 1q1 1 1 0 1 0 1 0v1l-7 12q-7 11-9 12 0 1-1 2l-1 1v1h-1v1h-1v1h-1v1h-1v1q1 0 2 0h1v-1h1v-1h2v-1l15-9q15-10 21-12 5-2 9-1 5 0 21 23 18 23 18 26 2 2 2 3v1l1 2 1 1v2l1-2v-2h1t30 38q28 38 29 39l1 1v1h1v1h1v1l1 1 1 1 1 1h1v-2l-1-1-1-2v-3l-1-1q-1-1-16-42l-15-40v-3l-1-1-1-2v-1q0-1-1-3l-1-1v-3l-1-2-1-1v-2h1v1h1v1h1v1h1v1l1 1 1 1v1l66 76q65 76 65 77h1v1h1v1h1v1l1 1 1 1v1h1v1h1v-2l-1-1-1-1v-2l-1-1-1-1v-1q0-1-16-32l-16-31q0-1-1-1v-1l-1-1v-1q0-1-1-2l-1-1v-2l-1-1-1-1v-1l-1-1v-1h2v1l1 1v1h1v1h1v1h1v1h1v1h1v1h1l48 51q48 51 62 64t34 27q21 14 41 25t41 20q20 10 41 21 21 12 37 18 15 8 16 8h2l1 1 1 1h2v2h-1v1h-1v1h-1v1h1v1h-2l-1-1-1-1h-2l-1-1q-1-1-18-8t-35-18q-18-10-42-21-23-10-43-22-20-10-38-24-18-12-31-24-12-12-50-51l-38-39v-1h-1v-1h-1v-1l-1-1-1-1v-1h-3 1v2l1 1 1 1v2l20 38q18 37 19 38l1 1v2l1 1 1 1v2h1v1h-2v-1l-1-1v-1h-1v-1h-1v-1h-1v-1h-1t-70-82l-70-82v-1h-1v-1h-1v-1l-1-1-1-1v-1h-2v2l1 2 1 1v2l18 49q18 49 19 50l1 1v3l1 2 1 1v3h-1v-1h-1v-1l-1-1-1-1v-1h-1v-1h-1v-1q0-1-32-43l-32-42h-1v-1h-1v-1h-1v-1h-1v-2h-2v6l2 7q0 6 1 9l1 3v9-1l-1-1-1-1v-3l-1-1q-1-2-10-27t-26-47q-16-22-19-22-2 0-11 4t-39 24l-29 22h-1v1h-1v1h-2v1h-1v1h-2v-2h1v-1h1v-1h1v-1h1v-1h1v-1h1q0-1 8-10t21-25q13-17 16-22zm537 356q2 0 2 1t-2 1h-2v-2h2z" fill="#044a82" stroke="#044a82"/>
  <path d="m16 86l3-13h1v1h2v3l-1 1v2l-2 8q-1 7-1 22t3 28q3 14 9 24 4 10 5 11l1 1v2l1 1 1 1v2h-4v-1h-1v-1h-1v-2l-1-1q-1-1-4-7-3-7-8-22-5-14-5-31t2-29z" fill="#084e86" stroke="#084e86"/>
  <path d="m28 92l1-6h1v3l1 1v1h2v13q1 14 5 28 4 13 7 18 3 4 3 5v1h1v1h1v2h2v2h-1l-1-1h-3v-2h-3q-1 0-1 0-1 0-1-1v-1t-4-4q-3-4-7-14-3-10-4-26-1-15 1-20zm14 62h1-1z" fill="#99d3f0" stroke="#99d3f0"/>
  <path d="m216 285v-1l5 4q5 3 25 22 20 18 21 19t1 1v1q0 1 0 1h1v1l1 1v2l1 1 1 1 2 6q4 7 4 8v1l1 1 1 1v2l1 1 1 1v1h-2v-1h-1v-1h-1v-2h-1v-1h-1v-1h-1v-1q-1 0-27-31l-28-31q0-1-2-3t-2-3z" fill="#b0dff7" stroke="#b0dff7"/>
 </g>
</svg>
